<?xml version="1.0" encoding="UTF-8" standalone="no"?>
<!DOCTYPE svg PUBLIC "-//W3C//DTD SVG 1.1//EN" "http://www.w3.org/Graphics/SVG/1.1/DTD/svg11.dtd">
<svg version="1.1" xmlns="http://www.w3.org/2000/svg" xmlns:xlink="http://www.w3.org/1999/xlink" preserveAspectRatio="xMidYMid meet" viewBox="0 0 50 50" width="50" height="50"><defs><path d="M10 5L40 5L40 45L10 45L10 5Z" id="g5JSpLfHrt"></path><path d="M10.94 6.25L39.06 6.25L39.06 43.75L10.94 43.75L10.94 6.25Z" id="hvqVRcX4V"></path><path d="M35.16 17.94C35.7 18.42 35.76 19.24 35.29 19.79C31.8 23.8 22.18 34.87 18.69 38.89C18.21 39.43 17.39 39.49 16.84 39.01C16.65 38.84 17.04 39.19 16.84 39.01C16.3 38.54 16.24 37.72 16.71 37.17C20.21 33.16 29.83 22.09 33.32 18.07C33.79 17.53 34.62 17.47 35.16 17.94C35.36 18.12 34.96 17.77 35.16 17.94Z" id="a36oZspjEm"></path><path d="M12.15 18.46C12.43 17.8 13.2 17.49 13.86 17.77C18.76 19.85 32.26 25.58 37.16 27.66C37.82 27.94 38.13 28.71 37.85 29.37C37.75 29.61 37.95 29.13 37.85 29.37C37.57 30.03 36.8 30.34 36.14 30.06C31.24 27.98 17.74 22.25 12.84 20.17C12.18 19.89 11.87 19.12 12.15 18.46C12.25 18.22 12.05 18.7 12.15 18.46Z" id="cbeiBdKsm"></path><path d="M35.16 7.81C36.02 7.81 36.72 8.51 36.72 9.38C36.72 10.1 36.72 10.73 36.72 11.46C36.72 12.32 36.02 13.02 35.16 13.02C30.78 13.02 19.22 13.02 14.84 13.02C13.98 13.02 13.28 12.32 13.28 11.46C13.28 10.73 13.28 10.1 13.28 9.38C13.28 8.51 13.98 7.81 14.84 7.81C19.22 7.81 30.78 7.81 35.16 7.81Z" id="bnl1F3K13"></path><path d="M31.25 31.99L24.25 40.04L22.05 38.13L29.05 30.08L31.25 31.99Z" id="av3L3SVK"></path></defs><g><g><g><use xlink:href="#g5JSpLfHrt" opacity="1" fill="#ffffff" fill-opacity="1"></use></g><g><use xlink:href="#hvqVRcX4V" opacity="1" fill="#ffffff" fill-opacity="0"></use><g><use xlink:href="#hvqVRcX4V" opacity="1" fill-opacity="0" stroke="#000000" stroke-width="1" stroke-opacity="1"></use></g></g><g><use xlink:href="#a36oZspjEm" opacity="1" fill="#000000" fill-opacity="1"></use></g><g><use xlink:href="#cbeiBdKsm" opacity="1" fill="#000000" fill-opacity="1"></use></g><g><use xlink:href="#bnl1F3K13" opacity="1" fill="#b9b9b9" fill-opacity="1"></use></g><g><use xlink:href="#av3L3SVK" opacity="1" fill="#5c5c5c" fill-opacity="1"></use></g></g></g></svg>